<svg width="76" height="76" viewBox="0 0 76 76" fill="none" xmlns="http://www.w3.org/2000/svg">
<circle cx="38" cy="38" r="38" fill="#E4E4E4"/>
<path d="M26.8611 52.1845H22.1116C21.6801 52.1845 21.3303 52.5343 21.3303 52.9658C21.3303 53.3972 21.6801 53.747 22.1116 53.747H26.861C27.2925 53.747 27.6423 53.3972 27.6423 52.9658C27.6423 52.5343 27.2925 52.1845 26.8611 52.1845Z" fill="black"/>
<path d="M31.1001 52.6672C30.9723 52.3551 30.6447 52.1576 30.3089 52.1879C29.9859 52.2172 29.7087 52.4508 29.6243 52.7636C29.5406 53.0743 29.6634 53.4134 29.9242 53.6009C30.1882 53.7907 30.556 53.7932 30.8232 53.6083C31.1218 53.4016 31.2399 53.0027 31.1001 52.6672Z" fill="black"/>
<path d="M30.393 48.271H20.752C20.3205 48.271 19.9707 48.6208 19.9707 49.0522C19.9707 49.4837 20.3205 49.8335 20.752 49.8335H30.393C30.8245 49.8335 31.1742 49.4837 31.1742 49.0522C31.1742 48.6208 30.8245 48.271 30.393 48.271Z" fill="black"/>
<path d="M27.3893 45.1387C27.3893 44.7072 27.0395 44.3574 26.608 44.3574H19.7812C19.3498 44.3574 19 44.7072 19 45.1387C19 45.5702 19.3498 45.9199 19.7812 45.9199H26.608C27.0395 45.9199 27.3893 45.5702 27.3893 45.1387Z" fill="black"/>
<path d="M58.0658 48.1743C57.9337 43.7452 54.2896 40.1829 49.8292 40.1829H45.8651L43.6102 26.6411C43.492 25.8268 43.0591 25.1143 42.3904 24.6339C41.7192 24.1517 40.9019 23.9694 40.0895 24.1205C38.4331 24.4285 37.9772 24.4945 37.8529 24.5063C37.6228 24.5284 37.4142 24.6512 37.2834 24.8418C37.1525 25.0323 37.1128 25.2711 37.1749 25.4938L37.369 26.1902C35.95 26.0203 34.6506 25.2478 33.8256 24.0389L33.3482 23.3405C33.2227 23.1567 33.0246 23.0352 32.8039 23.0066C32.5833 22.9777 32.3608 23.0447 32.1924 23.1902L28.4565 26.4188C28.0379 26.7331 27.6334 27.1427 27.2539 27.6366C27.2537 27.6369 27.2535 27.6372 27.2533 27.6374C26.1935 29.0136 25.2766 31.0756 24.7495 33.2432C24.1711 33.297 23.6121 33.5651 23.2042 34.0377L22.2996 35.0859C21.8928 35.5572 21.6945 36.1586 21.741 36.7794C21.7876 37.4002 22.0734 37.9652 22.5459 38.3706L37.9342 51.5731C38.1951 51.7925 38.4671 51.9965 38.7485 52.1845H33.9247C33.4932 52.1845 33.1435 52.5343 33.1435 52.9658C33.1435 53.3973 33.4932 53.747 33.9247 53.747H56.6743C57.9567 53.747 59 52.7037 59 51.4213V50.0367C59 49.2757 58.6326 48.5988 58.0658 48.1743ZM42.9161 31.9855H40.6062L40.0313 29.9227H42.5726L42.9161 31.9855ZM43.1763 33.548L43.5368 35.7133H41.6452L41.0417 33.548H43.1763ZM43.7971 37.2758L44.3499 40.5958C44.1091 40.6668 43.8504 40.6636 43.5979 40.582C43.1775 40.4461 42.8705 40.1234 42.7537 39.6906L42.0807 37.2758H43.7971ZM40.3752 25.6566C40.765 25.5841 41.1568 25.6716 41.4788 25.9029C41.8008 26.1342 42.0089 26.4779 42.0646 26.8706C42.0655 26.8768 42.0664 26.883 42.0675 26.8891L42.3125 28.3602H39.5958L38.9159 25.9207C39.2557 25.8618 39.7245 25.7777 40.3752 25.6566ZM29.457 27.6192L32.552 24.9445C33.7566 26.6929 35.7207 27.7388 37.8139 27.7866L37.9738 28.3601H37.9275C37.496 28.3601 37.1462 28.7098 37.1462 29.1413C37.1462 29.5728 37.496 29.9226 37.9275 29.9226H38.4092L38.9842 31.9854H38.4764C38.045 31.9854 37.6952 32.3352 37.6952 32.7666C37.6952 33.1981 38.045 33.5479 38.4764 33.5479H39.4197L40.0232 35.7132H39.1014C38.67 35.7132 38.3202 36.063 38.3202 36.4945C38.3202 36.9259 38.67 37.2757 39.1014 37.2757H40.4587L41.2469 40.1036C41.4985 41.0367 42.1978 41.7713 43.1173 42.0686C43.2466 42.1104 43.3773 42.1426 43.5087 42.1654L42.7475 43.2641C42.5018 43.6188 42.5902 44.1056 42.9448 44.3513C43.0805 44.4452 43.2356 44.4904 43.389 44.4904C43.6366 44.4904 43.8802 44.373 44.0319 44.154L45.7006 41.7453H49.8291C53.2707 41.7453 56.1125 44.3623 56.4692 47.7109H43.896C43.1428 47.7109 42.4097 47.4454 41.8311 46.9632L30.7242 37.4341C32.0423 36.3813 32.8282 34.7481 32.8282 32.9618C32.8282 31.5916 32.3337 30.2681 31.4358 29.2348C30.8567 28.5684 30.135 28.0506 29.3334 27.7154C29.3593 27.695 29.3853 27.6752 29.4112 27.6559C29.4269 27.6443 29.4422 27.632 29.457 27.6192ZM28.2106 28.9795C29.9809 29.4556 31.2657 31.0925 31.2657 32.9618C31.2657 34.3722 30.6025 35.6467 29.508 36.3907L26.4792 33.7922C26.4099 33.7327 26.3378 33.678 26.2638 33.628C26.691 31.8595 27.3934 30.1832 28.2106 28.9795ZM57.4375 51.4213C57.4375 51.8421 57.0951 52.1845 56.6743 52.1845H43.896C42.0856 52.1845 40.3255 51.5427 38.9459 50.3823L23.5633 37.1848C23.4082 37.0517 23.3144 36.8663 23.2992 36.6626C23.2839 36.4588 23.349 36.2614 23.4825 36.1068L24.3871 35.0586C24.5377 34.8841 24.751 34.7945 24.9655 34.7945C25.1415 34.7945 25.3183 34.8548 25.4619 34.978L40.8178 48.1526C40.8203 48.1548 40.8228 48.157 40.8254 48.1591C41.6851 48.8777 42.7756 49.2734 43.896 49.2734H56.6743C57.0951 49.2734 57.4375 49.6159 57.4375 50.0367V51.4213Z" fill="black"/>
</svg>
